# xmcd
# 
# Track frame offsets:
#     150
#     20309
#     36853
#     52664
#     70446
#     88134
#     105718
#     120891
#     134390
#     146553
#     161692
#     176355
#     190260
#     207021
#     223167
# 
# Disc length: 3154
# 
# Revision: 5
# Processed by: cddbd v1.5.2PL0 Copyright (c) Steve Scherf et al.
# Submitted via: BonkEnc v1.0.8
# 
DISCID=cf0c500f
DTITLE=Johnny Cash - American IV: The Man Comes Around
DYEAR=2002
DGENRE=American Recordings
TTITLE0=The Man Comes Around
TTITLE1=Hurt
TTITLE2=Give My Love To Rose
TTITLE3=Bridge Over Troubled Water
TTITLE4=I Hung My Head
TTITLE5=First Time Ever I Saw Your Face
TTITLE6=Personal Jesus
TTITLE7=In My Life
TTITLE8=Sam Hall
TTITLE9=Danny Boy
TTITLE10=Desperado
TTITLE11=I'm So Lonesome I Could Cry
TTITLE12=Tear Stained Letter
TTITLE13=Streets Of Laredo
TTITLE14=We'll Meet Again
EXTD=063 339-2 YEAR: 2002
EXTT0=
EXTT1=
EXTT2=
EXTT3=
EXTT4=
EXTT5=
EXTT6=
EXTT7=
EXTT8=
EXTT9=
EXTT10=
EXTT11=
EXTT12=
EXTT13=
EXTT14=
PLAYORDER=
